<svg width="22" height="26" viewBox="0 0 22 26" fill="none" xmlns="http://www.w3.org/2000/svg">
<path d="M15.0636 11.375C15.3783 11.4688 15.678 11.596 15.9626 11.7567C16.2472 11.9174 16.5452 12.1618 16.8566 12.49C17.168 12.8181 17.4341 13.2048 17.6551 13.6501C17.8761 14.0954 18.0603 14.6713 18.2076 15.3778C18.3549 16.0843 18.4286 16.8761 18.4286 17.7533C18.4286 18.7846 18.0937 19.6669 17.4241 20.4001C16.7545 21.1334 15.9475 21.5 15.0033 21.5H6.42522C5.48103 21.5 4.67411 21.1334 4.00446 20.4001C3.33482 19.6669 3 18.7846 3 17.7533C3 16.8761 3.07366 16.0843 3.22098 15.3778C3.3683 14.6713 3.55246 14.0954 3.77344 13.6501C3.99442 13.2048 4.2606 12.8181 4.57199 12.49C4.88337 12.1618 5.18136 11.9174 5.46596 11.7567C5.75056 11.596 6.05022 11.4688 6.36495 11.375C5.83594 10.5379 5.57143 9.62723 5.57143 8.64286C5.57143 7.94643 5.70703 7.28181 5.97824 6.649C6.24944 6.01618 6.61607 5.46875 7.07812 5.0067C7.54018 4.54464 8.08761 4.17801 8.72042 3.90681C9.35323 3.6356 10.0179 3.5 10.7143 3.5C11.4107 3.5 12.0753 3.6356 12.7081 3.90681C13.341 4.17801 13.8884 4.54464 14.3504 5.0067C14.8125 5.46875 15.1791 6.01618 15.4503 6.649C15.7215 7.28181 15.8571 7.94643 15.8571 8.64286C15.8571 9.62723 15.5926 10.5379 15.0636 11.375ZM10.7143 4.78571C9.64955 4.78571 8.74051 5.16239 7.98716 5.91574C7.23382 6.66908 6.85714 7.57812 6.85714 8.64286C6.85714 9.70759 7.23382 10.6166 7.98716 11.37C8.74051 12.1233 9.64955 12.5 10.7143 12.5C11.779 12.5 12.6881 12.1233 13.4414 11.37C14.1947 10.6166 14.5714 9.70759 14.5714 8.64286C14.5714 7.57812 14.1947 6.66908 13.4414 5.91574C12.6881 5.16239 11.779 4.78571 10.7143 4.78571ZM15.0033 20.2143C15.5926 20.2143 16.0965 19.9749 16.5151 19.4961C16.9336 19.0173 17.1429 18.4364 17.1429 17.7533C17.1429 16.1529 16.88 14.8906 16.3543 13.9665C15.8287 13.0424 15.0737 12.5569 14.0893 12.51C13.1183 13.3605 11.9933 13.7857 10.7143 13.7857C9.43527 13.7857 8.31027 13.3605 7.33928 12.51C6.35491 12.5569 5.59989 13.0424 5.07422 13.9665C4.54855 14.8906 4.28571 16.1529 4.28571 17.7533C4.28571 18.4364 4.49498 19.0173 4.9135 19.4961C5.33203 19.9749 5.83594 20.2143 6.42522 20.2143H15.0033Z" fill="#6B7280"/>
</svg>
